<mxfile host="app.diagrams.net" agent="Mozilla/5.0 (X11; Ubuntu; Linux x86_64; rv:129.0) Gecko/20100101 Firefox/129.0" version="24.7.7">
  <diagram name="Pàgina-1" id="N1aCYvdOPHAuSrJM29_f">
    <mxGraphModel dx="760" dy="1120" grid="1" gridSize="10" guides="1" tooltips="1" connect="1" arrows="1" fold="1" page="1" pageScale="1" pageWidth="827" pageHeight="1169" math="0" shadow="0">
      <root>
        <mxCell id="0" />
        <mxCell id="1" parent="0" />
        <mxCell id="CLLc7_ZMAe_ENWsanGeW-1" value="" style="strokeWidth=2;html=1;shape=mxgraph.flowchart.start_2;whiteSpace=wrap;" parent="1" vertex="1">
          <mxGeometry x="75" y="190" width="30" height="30" as="geometry" />
        </mxCell>
        <mxCell id="CLLc7_ZMAe_ENWsanGeW-2" value="" style="strokeWidth=2;html=1;shape=mxgraph.flowchart.start_2;whiteSpace=wrap;" parent="1" vertex="1">
          <mxGeometry x="485" y="190" width="30" height="30" as="geometry" />
        </mxCell>
        <mxCell id="CLLc7_ZMAe_ENWsanGeW-3" value="&lt;div&gt;Leer máx 20 leads que no tengan emails&lt;br&gt;&lt;/div&gt;" style="rounded=1;whiteSpace=wrap;html=1;absoluteArcSize=1;arcSize=14;strokeWidth=2;" parent="1" vertex="1">
          <mxGeometry x="40" y="350" width="100" height="100" as="geometry" />
        </mxCell>
        <mxCell id="CLLc7_ZMAe_ENWsanGeW-4" value="Buscar leads con emails de 7 días que tengan &#39;sent&#39; en campaña inicial" style="rounded=1;whiteSpace=wrap;html=1;absoluteArcSize=1;arcSize=14;strokeWidth=2;" parent="1" vertex="1">
          <mxGeometry x="450" y="300" width="100" height="100" as="geometry" />
        </mxCell>
        <mxCell id="CLLc7_ZMAe_ENWsanGeW-6" value="" style="strokeWidth=2;html=1;shape=mxgraph.flowchart.decision;whiteSpace=wrap;" parent="1" vertex="1">
          <mxGeometry x="450" y="485" width="100" height="100" as="geometry" />
        </mxCell>
        <mxCell id="CLLc7_ZMAe_ENWsanGeW-7" value="Enviar email campaña inicial y marcarlo como &#39;sent&#39;" style="rounded=1;whiteSpace=wrap;html=1;absoluteArcSize=1;arcSize=14;strokeWidth=2;" parent="1" vertex="1">
          <mxGeometry x="40" y="584.5" width="100" height="100" as="geometry" />
        </mxCell>
        <mxCell id="CLLc7_ZMAe_ENWsanGeW-8" value="" style="endArrow=classic;html=1;rounded=0;exitX=0.5;exitY=1;exitDx=0;exitDy=0;exitPerimeter=0;entryX=0.5;entryY=0;entryDx=0;entryDy=0;" parent="1" source="CLLc7_ZMAe_ENWsanGeW-1" target="CLLc7_ZMAe_ENWsanGeW-3" edge="1">
          <mxGeometry width="50" height="50" relative="1" as="geometry">
            <mxPoint x="65" y="310" as="sourcePoint" />
            <mxPoint x="115" y="260" as="targetPoint" />
          </mxGeometry>
        </mxCell>
        <mxCell id="CLLc7_ZMAe_ENWsanGeW-9" value="" style="endArrow=classic;html=1;rounded=0;exitX=0.5;exitY=1;exitDx=0;exitDy=0;exitPerimeter=0;" parent="1" source="CLLc7_ZMAe_ENWsanGeW-2" target="CLLc7_ZMAe_ENWsanGeW-4" edge="1">
          <mxGeometry width="50" height="50" relative="1" as="geometry">
            <mxPoint x="500" y="110" as="sourcePoint" />
            <mxPoint x="499.5" y="250" as="targetPoint" />
          </mxGeometry>
        </mxCell>
        <mxCell id="CLLc7_ZMAe_ENWsanGeW-10" value="" style="endArrow=classic;html=1;rounded=0;exitX=0.5;exitY=1;exitDx=0;exitDy=0;" parent="1" source="CLLc7_ZMAe_ENWsanGeW-3" edge="1">
          <mxGeometry width="50" height="50" relative="1" as="geometry">
            <mxPoint x="185" y="480" as="sourcePoint" />
            <mxPoint x="90" y="584.5" as="targetPoint" />
          </mxGeometry>
        </mxCell>
        <mxCell id="CLLc7_ZMAe_ENWsanGeW-11" value="" style="endArrow=classic;html=1;rounded=0;exitX=0.5;exitY=1;exitDx=0;exitDy=0;entryX=0.5;entryY=0;entryDx=0;entryDy=0;entryPerimeter=0;" parent="1" source="CLLc7_ZMAe_ENWsanGeW-4" target="CLLc7_ZMAe_ENWsanGeW-6" edge="1">
          <mxGeometry width="50" height="50" relative="1" as="geometry">
            <mxPoint x="495" y="350" as="sourcePoint" />
            <mxPoint x="495" y="485" as="targetPoint" />
          </mxGeometry>
        </mxCell>
        <mxCell id="CLLc7_ZMAe_ENWsanGeW-13" value="&lt;div&gt;No tienen email de first follow-up&lt;/div&gt;" style="text;html=1;align=center;verticalAlign=middle;whiteSpace=wrap;rounded=0;" parent="1" vertex="1">
          <mxGeometry x="345" y="500" width="100" height="30" as="geometry" />
        </mxCell>
        <mxCell id="CLLc7_ZMAe_ENWsanGeW-14" value="&lt;div&gt;Tienen email de first follow-up&lt;/div&gt;" style="text;html=1;align=center;verticalAlign=middle;whiteSpace=wrap;rounded=0;" parent="1" vertex="1">
          <mxGeometry x="565" y="500" width="100" height="30" as="geometry" />
        </mxCell>
        <mxCell id="CLLc7_ZMAe_ENWsanGeW-15" value="" style="strokeWidth=2;html=1;shape=mxgraph.flowchart.decision;whiteSpace=wrap;" parent="1" vertex="1">
          <mxGeometry x="615" y="640" width="100" height="100" as="geometry" />
        </mxCell>
        <mxCell id="CLLc7_ZMAe_ENWsanGeW-16" value="" style="endArrow=classic;html=1;rounded=0;exitX=1;exitY=0.5;exitDx=0;exitDy=0;exitPerimeter=0;entryX=0.5;entryY=0;entryDx=0;entryDy=0;entryPerimeter=0;" parent="1" source="CLLc7_ZMAe_ENWsanGeW-6" target="CLLc7_ZMAe_ENWsanGeW-15" edge="1">
          <mxGeometry width="50" height="50" relative="1" as="geometry">
            <mxPoint x="325" y="600" as="sourcePoint" />
            <mxPoint x="375" y="550" as="targetPoint" />
            <Array as="points">
              <mxPoint x="665" y="535" />
            </Array>
          </mxGeometry>
        </mxCell>
        <mxCell id="CLLc7_ZMAe_ENWsanGeW-17" value="" style="endArrow=classic;html=1;rounded=0;" parent="1" source="CLLc7_ZMAe_ENWsanGeW-6" target="CLLc7_ZMAe_ENWsanGeW-18" edge="1">
          <mxGeometry width="50" height="50" relative="1" as="geometry">
            <mxPoint x="450" y="535" as="sourcePoint" />
            <mxPoint x="395" y="640" as="targetPoint" />
            <Array as="points">
              <mxPoint x="319" y="535" />
            </Array>
          </mxGeometry>
        </mxCell>
        <mxCell id="CLLc7_ZMAe_ENWsanGeW-18" value="Enviar email first follow-up y marcarlo como &#39;sent&#39;" style="rounded=1;whiteSpace=wrap;html=1;absoluteArcSize=1;arcSize=14;strokeWidth=2;" parent="1" vertex="1">
          <mxGeometry x="269" y="640" width="100" height="100" as="geometry" />
        </mxCell>
        <mxCell id="CLLc7_ZMAe_ENWsanGeW-19" value="El email follow-up tiene 7 días y es &#39;sent&#39;" style="text;html=1;align=center;verticalAlign=middle;whiteSpace=wrap;rounded=0;" parent="1" vertex="1">
          <mxGeometry x="505" y="650" width="100" height="30" as="geometry" />
        </mxCell>
        <mxCell id="CLLc7_ZMAe_ENWsanGeW-20" value="" style="endArrow=classic;html=1;rounded=0;entryX=0.5;entryY=0;entryDx=0;entryDy=0;entryPerimeter=0;" parent="1" source="CLLc7_ZMAe_ENWsanGeW-15" target="CLLc7_ZMAe_ENWsanGeW-22" edge="1">
          <mxGeometry width="50" height="50" relative="1" as="geometry">
            <mxPoint x="616" y="690" as="sourcePoint" />
            <mxPoint x="485" y="795" as="targetPoint" />
            <Array as="points">
              <mxPoint x="485" y="690" />
            </Array>
          </mxGeometry>
        </mxCell>
        <mxCell id="CLLc7_ZMAe_ENWsanGeW-21" value="" style="endArrow=classic;html=1;rounded=0;exitX=1;exitY=0.5;exitDx=0;exitDy=0;exitPerimeter=0;entryX=0.5;entryY=0;entryDx=0;entryDy=0;entryPerimeter=0;" parent="1" source="CLLc7_ZMAe_ENWsanGeW-15" target="CLLc7_ZMAe_ENWsanGeW-23" edge="1">
          <mxGeometry width="50" height="50" relative="1" as="geometry">
            <mxPoint x="716" y="690" as="sourcePoint" />
            <mxPoint x="831" y="795" as="targetPoint" />
            <Array as="points">
              <mxPoint x="810" y="690" />
            </Array>
          </mxGeometry>
        </mxCell>
        <mxCell id="CLLc7_ZMAe_ENWsanGeW-22" value="Enviar email second follow-up y marcarlo como &#39;sent&#39;" style="rounded=1;whiteSpace=wrap;html=1;absoluteArcSize=1;arcSize=14;strokeWidth=2;" parent="1" vertex="1">
          <mxGeometry x="435" y="800" width="100" height="100" as="geometry" />
        </mxCell>
        <mxCell id="CLLc7_ZMAe_ENWsanGeW-23" value="" style="strokeWidth=2;html=1;shape=mxgraph.flowchart.start_2;whiteSpace=wrap;" parent="1" vertex="1">
          <mxGeometry x="795" y="798" width="30" height="30" as="geometry" />
        </mxCell>
        <mxCell id="CLLc7_ZMAe_ENWsanGeW-24" value="" style="strokeWidth=2;html=1;shape=mxgraph.flowchart.start_2;whiteSpace=wrap;" parent="1" vertex="1">
          <mxGeometry x="470" y="980" width="30" height="30" as="geometry" />
        </mxCell>
        <mxCell id="CLLc7_ZMAe_ENWsanGeW-25" value="" style="endArrow=classic;html=1;rounded=0;entryX=0.5;entryY=0;entryDx=0;entryDy=0;entryPerimeter=0;exitX=0.5;exitY=1;exitDx=0;exitDy=0;" parent="1" source="CLLc7_ZMAe_ENWsanGeW-22" target="CLLc7_ZMAe_ENWsanGeW-24" edge="1">
          <mxGeometry width="50" height="50" relative="1" as="geometry">
            <mxPoint x="465" y="780" as="sourcePoint" />
            <mxPoint x="515" y="730" as="targetPoint" />
          </mxGeometry>
        </mxCell>
        <mxCell id="CLLc7_ZMAe_ENWsanGeW-26" value="" style="endArrow=classic;html=1;rounded=0;entryX=0.5;entryY=0;entryDx=0;entryDy=0;entryPerimeter=0;" parent="1" source="CLLc7_ZMAe_ENWsanGeW-18" target="CLLc7_ZMAe_ENWsanGeW-27" edge="1">
          <mxGeometry width="50" height="50" relative="1" as="geometry">
            <mxPoint x="319" y="740" as="sourcePoint" />
            <mxPoint x="349" y="570" as="targetPoint" />
          </mxGeometry>
        </mxCell>
        <mxCell id="CLLc7_ZMAe_ENWsanGeW-27" value="" style="strokeWidth=2;html=1;shape=mxgraph.flowchart.start_2;whiteSpace=wrap;" parent="1" vertex="1">
          <mxGeometry x="304" y="820" width="30" height="30" as="geometry" />
        </mxCell>
        <mxCell id="CLLc7_ZMAe_ENWsanGeW-28" value="" style="endArrow=classic;html=1;rounded=0;entryX=0.5;entryY=0;entryDx=0;entryDy=0;entryPerimeter=0;" parent="1" source="CLLc7_ZMAe_ENWsanGeW-7" target="CLLc7_ZMAe_ENWsanGeW-29" edge="1">
          <mxGeometry width="50" height="50" relative="1" as="geometry">
            <mxPoint x="90" y="685" as="sourcePoint" />
            <mxPoint x="120" y="515" as="targetPoint" />
          </mxGeometry>
        </mxCell>
        <mxCell id="CLLc7_ZMAe_ENWsanGeW-29" value="" style="strokeWidth=2;html=1;shape=mxgraph.flowchart.start_2;whiteSpace=wrap;" parent="1" vertex="1">
          <mxGeometry x="75" y="810" width="30" height="30" as="geometry" />
        </mxCell>
      </root>
    </mxGraphModel>
  </diagram>
</mxfile>
